<svg width="100" height="100" viewBox="0 0 100 100" fill="none" xmlns="http://www.w3.org/2000/svg">
<g clip-path="url(#clip0_4_2)">
<path d="M50 100C77.6142 100 100 77.6142 100 50C100 22.3858 77.6142 0 50 0C22.3858 0 0 22.3858 0 50C0 77.6142 22.3858 100 50 100Z" fill="#34AADF"/>
<path d="M20.8094 49.5664C20.8094 49.5664 45.8094 39.3065 54.4798 35.6937C57.8036 34.2487 69.0752 29.6243 69.0752 29.6243C69.0752 29.6243 74.2776 27.6013 73.844 32.5145C73.6994 34.5377 72.5434 41.6184 71.3874 49.2774C69.6532 60.1156 67.7746 71.9652 67.7746 71.9652C67.7746 71.9652 67.4856 75.289 65.029 75.867C62.5724 76.445 58.526 73.844 57.8036 73.2658C57.2254 72.8324 46.9654 66.3294 43.2082 63.1502C42.1966 62.2832 41.0406 60.5492 43.3526 58.526C48.555 53.7572 54.7688 47.8325 58.526 44.0753C60.2602 42.3411 61.9942 38.2948 54.7688 43.208C44.5088 50.289 34.3932 56.9364 34.3932 56.9364C34.3932 56.9364 32.081 58.3814 27.7458 57.0808C23.4104 55.7804 18.3526 54.0462 18.3526 54.0462C18.3526 54.0462 14.8846 51.8786 20.8094 49.5664Z" fill="white"/>
</g>
<defs>
<clipPath id="clip0_4_2">
<rect width="100" height="100" fill="white"/>
</clipPath>
</defs>
</svg>
