<svg width="100" height="101" viewBox="0 0 100 101" fill="none" xmlns="http://www.w3.org/2000/svg">
<path d="M26.3343 87.3644L27.9683 88.1814C34.6308 92.1442 42.2478 94.2156 49.9997 94.1726C73.864 94.1181 93.4716 74.4641 93.4716 50.5998C93.4716 39.0667 88.8911 27.9911 80.7457 19.8266C72.6112 11.5777 61.4975 6.92908 49.9153 6.92908C26.16 6.92908 6.61487 26.4769 6.61487 50.2295C6.61487 50.4174 6.61487 50.6026 6.6176 50.7905C6.68915 58.8662 8.94784 66.7716 13.1535 73.6661L14.2428 75.3001L9.88557 91.3676L26.3343 87.3644Z" fill="#00E676"/>
<path d="M85.5932 14.9248C76.3204 5.46398 63.5997 0.156358 50.3537 0.218807H50.2692C22.9901 0.218892 0.541989 22.6671 0.541989 49.9463C0.541989 50.0743 0.544719 50.1996 0.544719 50.3277C0.647469 59.0007 2.89272 67.5139 7.08066 75.1096L0 100.981L26.3888 94.1726C33.6787 98.1749 41.8743 100.238 50.1903 100.164C77.5704 100.014 100.016 77.438 99.9994 50.0553C100.065 36.899 94.8769 24.2466 85.5932 14.9248ZM50.3537 91.7217C42.9822 91.7601 35.7404 89.7825 29.4116 86.0028L27.7776 85.1858L12.0642 89.2707L16.1491 73.7479L15.0598 72.1139C11.0135 65.5805 8.86986 58.0479 8.86975 50.363C8.86975 27.6998 27.5189 9.05051 50.1822 9.05051C72.8454 9.05051 91.4945 27.6998 91.4945 50.363C91.4945 64.6331 84.1008 77.9282 71.9767 85.4581C65.5644 89.5657 58.105 91.7401 50.4899 91.7217M74.4277 61.4931L71.4321 60.1315C71.4321 60.1315 67.0747 58.2251 64.3515 56.8635C64.0792 56.8635 63.8068 56.5912 63.5344 56.5912C62.863 56.6078 62.2069 56.7952 61.6281 57.1358C61.0481 57.4762 61.3558 57.4082 57.5432 61.7654C57.2845 62.2747 56.7535 62.5934 56.1816 62.5824H55.9092C55.4998 62.5139 55.1204 62.3242 54.82 62.0378L53.4583 61.4931C50.5366 60.2562 47.8614 58.5035 45.5607 56.3189C45.016 55.7742 44.1991 55.2295 43.6544 54.6848C41.6383 52.7535 39.8973 50.5543 38.4802 48.149L38.2078 47.6043C37.9712 47.2714 37.7875 46.904 37.6632 46.515C37.5919 46.0432 37.6883 45.5614 37.9355 45.1534C38.1833 44.7448 39.0248 43.7916 39.8418 42.9747C40.6588 42.1577 40.6588 41.6131 41.2034 41.0684C41.4834 40.6796 41.6768 40.2354 41.7708 39.7657C41.8647 39.296 41.857 38.8115 41.7481 38.345C40.4789 34.8212 39.0245 31.3669 37.3908 27.9966C36.953 27.3156 36.2707 26.8283 35.4845 26.6349H32.4889C31.9442 26.6349 31.3996 26.9072 30.8549 26.9072L30.5826 27.1795C30.0379 27.4519 29.4933 27.9966 28.9486 28.2689C28.404 28.5412 28.1316 29.3582 27.587 29.9029C25.6832 32.3087 24.6298 35.2773 24.5913 38.345C24.6215 40.503 25.0845 42.6329 25.9529 44.6087L26.2253 45.4256C28.6706 50.6537 32.0904 55.3675 36.3016 59.3145L37.3908 60.4038C38.1835 61.0603 38.9129 61.7897 39.5695 62.5824C45.2121 67.4925 51.9141 71.0328 59.15 72.931C59.9669 73.2033 61.0563 73.2033 61.8732 73.4756H64.5966C66.0199 73.4054 67.4122 73.0341 68.6815 72.3863C69.3486 72.084 69.9859 71.7191 70.5878 71.297L71.1324 70.7523C71.6772 70.2076 72.2218 69.9353 72.7664 69.3907C73.2987 68.9164 73.7576 68.3658 74.1281 67.7567C74.651 66.5367 75.0186 65.2567 75.2174 63.9441V62.0378C74.9727 61.8179 74.6975 61.6344 74.4004 61.4931" fill="white"/>
</svg>
